# xmcd
#
# Track frame offsets:
# 150
# 36927
# 74394
# 106298
# 143359
# 197001
# 222506
# 248585
# 269411
# 292153
# 314188
#
# Disc length: 4480 seconds
#
#
# Revision: 0
# Processed by: cddbd v1.5.2PL0 Copyright (c) Steve Scherf et al.
# Submitted via: FreeRIP 2.951 
#
DISCID=b1117e0b
DTITLE=Johnny Winter - 1990-05-18 - Barcelona Boogie
DYEAR=1900
DGENRE=
TTITLE0=Johnny Winter - Instrumental
TTITLE1=Johnny Winter - Give It Back
TTITLE2=Johnny Winter - You're Humbugin' Me
TTITLE3=Johnny Winter - Don't Take Advantage Of Me
TTITLE4=Johnny Winter - Red House
TTITLE5=Johnny Winter - Mojo Boogie
TTITLE6=Johnny Winter - Stranger Blues
TTITLE7=Johnny Winter - Johnny B. Goode
TTITLE8=Johnny Winter - Serious As A Heart Attack
TTITLE9=Johnny Winter - Instrumental
TTITLE10=Johnny Winter - Jumpin'Jack Flash
EXTD=
EXTT0=
EXTT1=
EXTT2=
EXTT3=
EXTT4=
EXTT5=
EXTT6=
EXTT7=
EXTT8=
EXTT9=
EXTT10=
PLAYORDER=
